<svg width="640" height="480.00000000000006" xmlns="http://www.w3.org/2000/svg">
 <!-- Created with Method Draw - http://github.com/duopixel/Method-Draw/ -->
 <g>
  <title>background</title>
  <rect fill="#fff" id="canvas_background" height="482" width="642" y="-1" x="-1"/>
  <g display="none" overflow="visible" y="0" x="0" height="100%" width="100%" id="canvasGrid">
   <rect fill="url(#gridpattern)" stroke-width="0" y="0" x="0" height="100%" width="100%"/>
  </g>
 </g>
 <g>
  <title>Layer 1</title>
  <rect stroke="#000" id="svg_36" height="342.758948" width="642.705592" y="-1.836535" x="-0.753844" stroke-opacity="null" stroke-width="1.5" fill="#56ffff"/>
  <rect id="svg_35" height="150.708806" width="661.403456" y="338.891162" x="-11.736218" stroke-width="1.5" fill="#9e530e"/>
  <ellipse stroke="#000" transform="rotate(-26 466.76669311523415,270.9938049316406) " ry="52.343527" rx="11.033922" id="svg_33" cy="270.993823" cx="466.766702" stroke-width="1.5" fill="#ff7f00"/>
  <ellipse stroke="#000" transform="rotate(-34 164.53192138671866,103.76196289062503) " ry="19.004129" rx="25.413504" id="svg_26" cy="103.761961" cx="164.531914" fill-opacity="null" stroke-opacity="null" stroke-width="1.5" fill="#ff7f00"/>
  <ellipse ry="26.562387" rx="16.796803" id="svg_24" cy="78.371448" cx="87.188492" stroke-width="1.5" stroke="#000" fill="#ff7f00"/>
  <ellipse stroke="#000" ry="69.140327" rx="20.703039" id="svg_20" cy="350.635919" cx="282.50016" stroke-width="1.5" fill="#ff7f00"/>
  <ellipse stroke="#000" ry="69.140327" rx="20.703039" id="svg_19" cy="350.635919" cx="417.655832" stroke-width="1.5" fill="#ff7f00"/>
  <path id="svg_37" d="m542.20747,50.51785c-18.940785,0 -34.280643,14.076116 -34.280643,31.456502c0,17.3684 15.339859,31.452507 34.280643,31.452507c18.923368,0 34.271935,-14.084107 34.271935,-31.452507c0.004354,-17.380387 -15.339859,-31.456502 -34.271935,-31.456502zm0,54.922022c-14.125036,-0.031964 -25.541757,-10.508142 -25.576591,-23.461524c0.030479,-12.957378 11.451555,-23.437552 25.576591,-23.469515c14.116327,0.031964 25.533049,10.512137 25.563528,23.469515c-0.030479,12.953383 -11.447201,23.429561 -25.563528,23.461524zm0,-57.027646c2.407874,0 4.354203,-1.78998 4.354203,-3.999487l0,-19.382128c-0.008708,-2.209507 -1.950683,-3.995491 -4.354203,-3.995491c-2.407874,0 -4.358558,1.793976 -4.354203,4.003482l0,19.378132c0,2.201516 1.946329,3.995491 4.354203,3.995491zm13.990055,2.549123c0.544275,0.211761 1.110322,0.303657 1.663306,0.307653c1.715556,0 3.330966,-0.930949 4.027638,-2.469214l8.081401,-17.911787c0.914383,-2.041696 -0.13498,-4.375063 -2.355624,-5.218112c-2.224998,-0.843049 -4.772207,0.12386 -5.695298,2.161561l-8.077047,17.915783c-0.918737,2.037701 0.13498,4.375063 2.355624,5.214116zm11.865204,7.27579c0.84907,0.775125 1.963746,1.170679 3.078422,1.170679s2.229352,-0.391558 3.078422,-1.170679l14.934918,-13.716521c1.702494,-1.558242 1.698139,-4.087388 0,-5.65362c-1.706848,-1.558242 -4.463058,-1.558242 -6.161198,0.007991l-14.930563,13.70853c-1.702494,1.562237 -1.702494,4.091383 0,5.65362zm7.937713,10.883718c0.687964,1.538264 2.312082,2.465218 4.01893,2.465218c0.552984,0 1.11903,-0.099887 1.66766,-0.311648l19.506831,-7.419627c2.224998,-0.843049 3.278715,-3.184407 2.355624,-5.222107s-3.465946,-3.004609 -5.690944,-2.157565l-19.511185,7.419627c-2.220644,0.847044 -3.270007,3.188402 -2.346916,5.226103zm28.254426,8.834031l-21.122241,0.003995c-2.40352,0 -4.354203,1.78998 -4.345495,3.999487c0,2.209507 1.946329,3.991496 4.345495,3.991496l21.126595,-0.007991c2.407874,0 4.349849,-1.793976 4.349849,-3.995491c0,-2.209507 -1.950683,-3.999487 -4.354203,-3.991496zm-3.039234,22.087075l-19.51554,-7.407641c-2.229352,-0.847044 -4.776561,0.119865 -5.690944,2.161561c-0.918737,2.041696 0.13498,4.379058 2.355624,5.226103l19.51554,7.407641c0.54863,0.20377 1.114676,0.299662 1.66766,0.299662c1.711202,0 3.330966,-0.926954 4.027638,-2.465218c0.914383,-2.041696 -0.143689,-4.383054 -2.359978,-5.222107zm-26.969936,5.645629c-1.702494,-1.562237 -4.45435,-1.562237 -6.156844,0.003995c-1.702494,1.558242 -1.698139,4.083392 0,5.645629l14.952334,13.700539c0.84907,0.779121 1.959392,1.170679 3.074068,1.170679s2.233706,-0.391558 3.082776,-1.170679c1.702494,-1.566233 1.693785,-4.095379 0,-5.65362l-14.952334,-13.696544zm-12.32675,9.441346c-0.918737,-2.041696 -3.465946,-3.004609 -5.690944,-2.161561c-2.220644,0.847044 -3.274361,3.184407 -2.35127,5.226103l8.098818,17.899801c0.692318,1.538264 2.312082,2.465218 4.027638,2.465218c0.557338,0 1.123384,-0.095892 1.66766,-0.303657c2.224998,-0.843049 3.274361,-3.184407 2.35127,-5.230098l-8.103172,-17.895805zm-19.667937,0.411536c-2.407874,0 -4.354203,1.78998 -4.354203,3.995491l0.017417,19.382128c0,2.209507 1.955037,3.991496 4.354203,3.991496c2.407874,0 4.354203,-1.78998 4.345495,-3.995491l-0.013063,-19.386123c0,-2.19752 -1.955037,-3.991496 -4.349849,-3.9875zm-14.003118,-2.541132c-2.220644,-0.839053 -4.763499,0.12386 -5.68659,2.169552l-8.063985,17.911787c-0.914383,2.041696 0.143689,4.379058 2.364332,5.222107c0.544275,0.207766 1.105968,0.303657 1.663306,0.303657c1.706848,0 3.330966,-0.934945 4.023284,-2.473209l8.068339,-17.919778c0.918737,-2.037701 -0.143689,-4.371067 -2.368687,-5.214116zm-11.869558,-7.259808c-1.706848,-1.562237 -4.463058,-1.554246 -6.161198,0.007991l-14.917501,13.716521c-1.702494,1.566233 -1.693785,4.087388 0.008708,5.65362c0.84907,0.775125 1.959392,1.166683 3.074068,1.166683c1.11903,0 2.233706,-0.391558 3.082776,-1.170679l14.921855,-13.720517c1.693785,-1.562237 1.693785,-4.091383 -0.008708,-5.65362zm-7.942067,-10.871732c-0.927445,-2.033705 -3.4703,-3.000614 -5.690944,-2.157565l-19.502477,7.435609c-2.224998,0.847044 -3.274361,3.188402 -2.35127,5.226103c0.696673,1.538264 2.312082,2.461223 4.023284,2.461223c0.552984,0 1.123384,-0.095892 1.66766,-0.303657l19.502477,-7.435609c2.21629,-0.855035 3.270007,-3.192397 2.35127,-5.226103zm-2.812815,-12.833518c0,-2.209507 -1.946329,-3.991496 -4.354203,-3.991496l-21.122241,0.023973c-2.407874,0 -4.358558,1.78998 -4.349849,3.999487c0.004354,2.201516 1.955037,3.995491 4.354203,3.9875l21.126595,-0.023973c2.40352,0 4.354203,-1.797971 4.345495,-3.995491zm-22.450273,-18.071607l19.528602,7.391659c0.544275,0.211761 1.105968,0.303657 1.658951,0.303657c1.711202,0 3.33532,-0.926954 4.027638,-2.469214c0.923091,-2.041696 -0.139335,-4.383054 -2.368687,-5.218112l-19.519894,-7.391659c-2.224998,-0.839053 -4.767853,0.127856 -5.68659,2.165556c-0.923091,2.041696 0.143689,4.371067 2.359978,5.218112zm26.965582,-5.665607c0.84907,0.77113 1.955037,1.162688 3.069713,1.162688s2.233706,-0.391558 3.08713,-1.17867c1.702494,-1.554246 1.693785,-4.087388 -0.017417,-5.649625l-14.952334,-13.680562c-1.698139,-1.558242 -4.463058,-1.550251 -6.156844,0.011986c-1.702494,1.558242 -1.693785,4.091383 0.008708,5.649625l14.961043,13.684557zm12.309333,-9.457328c0.696673,1.534269 2.316436,2.457227 4.01893,2.457227c0.557338,0 1.123384,-0.099887 1.672014,-0.307653c2.220644,-0.847044 3.278715,-3.188402 2.35127,-5.222107l-8.116235,-17.895805c-0.923091,-2.037701 -3.474654,-3.000614 -5.695298,-2.15357c-2.220644,0.85104 -3.270007,3.192397 -2.346916,5.226103l8.116235,17.895805z" stroke-opacity="null" stroke-width="1.5" stroke="#000" fill="#ff0000"/>
  <path id="svg_43" d="m533.641218,105.89171c0.110398,-1.0036 0.174312,-2.017494 0.174312,-3.041681c0,-17.766299 -16.257539,-32.166678 -36.315089,-32.166678c-15.5661,0 -28.808034,8.692723 -33.973492,20.890327c-3.422334,-3.324748 -8.303082,-5.450322 -13.782302,-5.450322c-10.330916,0 -18.703723,7.416349 -18.703723,16.567126c0,1.0808 0.13364,2.135867 0.360246,3.154908c-13.782302,2.012347 -24.328204,12.537284 -24.328204,25.311315c0,14.215098 13.009517,25.733342 29.052071,25.733342l92.240325,0c16.048364,0 29.052071,-11.518244 29.052071,-25.733342c0.00581,-12.614484 -10.255381,-23.062221 -23.776215,-25.264995z" stroke-opacity="null" stroke-width="1.5" stroke="#000" fill="#ffffff"/>
  <ellipse stroke="#000" ry="45.312304" rx="48.046671" id="svg_18" cy="151.808634" cx="387.187213" stroke-width="1.5" fill="#ff7f00"/>
  <ellipse stroke="#000" ry="45.312304" rx="48.046671" id="svg_17" cy="151.808634" cx="284.8439" stroke-width="1.5" fill="#ff7f00"/>
  <ellipse transform="rotate(147 191.09425354003906,179.15228271484378) " ry="46.8748" rx="26.171763" id="svg_13" cy="179.152268" cx="191.0943" stroke-width="1.5" stroke="#000" fill="#ff7f00"/>
  <ellipse ry="81.249654" rx="132.811934" id="svg_10" cy="239.999995" cx="319.999996" stroke-width="1.5" stroke="#000" fill="#ff7f00"/>
  <ellipse stroke="#000" ry="74.609057" rx="23.828021" id="svg_11" cy="352.979653" cx="255.156526" stroke-width="1.5" fill="#ff7f00"/>
  <ellipse stroke="#000" ry="74.609057" rx="23.828021" id="svg_12" cy="352.979653" cx="386.405965" stroke-width="1.5" fill="#ff7f00"/>
  <ellipse ry="53.124774" rx="71.48407" id="svg_14" cy="148.683648" cx="109.844646" stroke-width="1.5" stroke="#000" fill="#ff7f00"/>
  <path id="svg_22" d="m581.327011,304.932983" opacity="0.5" fill-opacity="null" stroke-opacity="null" stroke-width="1.5" stroke="#000" fill="#fff"/>
  <ellipse ry="27.734257" rx="19.140543" id="svg_23" cy="79.543318" cx="111.407139" stroke-width="1.5" stroke="#000" fill="#ff7f00"/>
  <ellipse ry="19.531167" rx="28.12488" id="svg_25" cy="108.058822" cx="175.859989" fill-opacity="null" stroke-opacity="null" stroke-width="1.5" stroke="#000" fill="#ff7f00"/>
  <ellipse ry="14.453063" rx="8.20309" id="svg_27" cy="78.762071" cx="108.282152" stroke-width="1.5" stroke="#ffffff" fill="#fff"/>
  <ellipse ry="7.812467" rx="6.249973" id="svg_28" cy="79.933941" cx="107.891529" stroke-width="1.5" fill="#000000"/>
  <line stroke-linecap="null" stroke-linejoin="null" id="svg_29" y2="156.496115" x2="111.016516" y1="165.871075" x1="41.485562" stroke-width="1.5" fill="none"/>
  <path stroke="null" d="m61.797969,187.494188c0,0 0.895759,0.948399 4.34845,0c7.11791,-1.955166 17.321558,-9.699686 33.048206,-11.643179c13.893743,-1.716995 26.25872,-2.071484 36.526971,-7.762106c5.33821,-2.958408 6.220227,-6.276914 7.827207,-7.762106c2.272601,-2.100403 4.34845,-3.881034 7.827207,-7.762106l1.739387,-3.881034l0.869676,0" id="svg_30" stroke-width="1.5" fill="#000000"/>
  <ellipse ry="8.984337" rx="3.124987" id="svg_31" cy="140.480558" cx="50.860522" stroke-opacity="null" stroke-width="1.5" stroke="null" fill="#000000"/>
  <text style="cursor: move;" xml:space="preserve" text-anchor="start" font-family="Helvetica, Arial, sans-serif" font-size="72" id="svg_44" y="257.320359" x="261.034647" stroke-opacity="null" stroke-width="0" stroke="#000" fill="#000000">C++</text>
  <ellipse ry="13.448243" rx="4.137921" id="svg_45" cy="79.734585" cx="75.517857" stroke-width="1.5" stroke="#ffffff" fill="#ffffff"/>
  <ellipse ry="6.896535" rx="3.793094" id="svg_48" cy="81.458719" cx="75.173031" stroke-opacity="null" stroke-width="1.5" stroke="#000" fill="#000000"/>
 </g>
</svg>